<svg width="20" height="19" viewBox="0 0 20 19" fill="none" xmlns="http://www.w3.org/2000/svg">
<path d="M12.754 7.5C13.7205 7.5 14.504 8.2835 14.504 9.25V13.999C14.504 16.4848 12.4888 18.5 10.003 18.5C7.51712 18.5 5.50193 16.4848 5.50193 13.999V9.25C5.50193 8.2835 6.28543 7.5 7.25193 7.5H12.754ZM12.754 9H7.25193C7.11386 9 7.00193 9.11193 7.00193 9.25V13.999C7.00193 15.6564 8.34554 17 10.003 17C11.6604 17 13.004 15.6564 13.004 13.999V9.25C13.004 9.11193 12.8921 9 12.754 9ZM1.75 7.5L5.13128 7.49906C4.78791 7.91447 4.56424 8.43246 4.51312 9.00019L1.75 9C1.61193 9 1.5 9.11193 1.5 9.25V12.4988C1.5 13.8802 2.61984 15 4.00124 15C4.20123 15 4.39574 14.9765 4.58216 14.9322C4.66687 15.4361 4.82156 15.9167 5.03487 16.364C4.70577 16.453 4.35899 16.5 4.00124 16.5C1.79142 16.5 0 14.7086 0 12.4988V9.25C0 8.2835 0.783502 7.5 1.75 7.5ZM14.8747 7.49906L18.25 7.5C19.2165 7.5 20 8.2835 20 9.25V12.5C20 14.7091 18.2091 16.5 16 16.5C15.6436 16.5 15.298 16.4534 14.9691 16.3659C15.184 15.9177 15.3388 15.4371 15.425 14.9331C15.6092 14.977 15.8019 15 16 15C17.3807 15 18.5 13.8807 18.5 12.5V9.25C18.5 9.11193 18.3881 9 18.25 9L15.4928 9.00019C15.4417 8.43246 15.218 7.91447 14.8747 7.49906ZM10 0.5C11.6569 0.5 13 1.84315 13 3.5C13 5.15685 11.6569 6.5 10 6.5C8.34315 6.5 7 5.15685 7 3.5C7 1.84315 8.34315 0.5 10 0.5ZM16.5 1.5C17.8807 1.5 19 2.61929 19 4C19 5.38071 17.8807 6.5 16.5 6.5C15.1193 6.5 14 5.38071 14 4C14 2.61929 15.1193 1.5 16.5 1.5ZM3.5 1.5C4.88071 1.5 6 2.61929 6 4C6 5.38071 4.88071 6.5 3.5 6.5C2.11929 6.5 1 5.38071 1 4C1 2.61929 2.11929 1.5 3.5 1.5ZM10 2C9.17157 2 8.5 2.67157 8.5 3.5C8.5 4.32843 9.17157 5 10 5C10.8284 5 11.5 4.32843 11.5 3.5C11.5 2.67157 10.8284 2 10 2ZM16.5 3C15.9477 3 15.5 3.44772 15.5 4C15.5 4.55228 15.9477 5 16.5 5C17.0523 5 17.5 4.55228 17.5 4C17.5 3.44772 17.0523 3 16.5 3ZM3.5 3C2.94772 3 2.5 3.44772 2.5 4C2.5 4.55228 2.94772 5 3.5 5C4.05228 5 4.5 4.55228 4.5 4C4.5 3.44772 4.05228 3 3.5 3Z" fill="#616161"/>
</svg>
